<svg width="64" height="64" viewBox="0 0 64 64" fill="none" xmlns="http://www.w3.org/2000/svg">
<path d="M42.1422 64H11.8864C9.57013 64.001 7.30407 63.3248 5.36698 62.0547C3.42989 60.7845 1.90627 58.9758 0.983516 56.8511C0.0607672 54.7263 -0.220859 52.3781 0.17328 50.0954C0.567419 47.8127 1.62013 45.6949 3.20193 44.0027L6.88158 40.056C8.71152 38.0946 9.70867 35.4993 9.66291 32.8171C9.61715 30.1349 8.53205 27.5752 6.63627 25.6773L3.02062 22.064C2.66737 21.6849 2.47506 21.1834 2.4842 20.6653C2.49334 20.1471 2.70322 19.6528 3.06962 19.2863C3.43602 18.9199 3.93033 18.71 4.44842 18.7009C4.9665 18.6917 5.46791 18.8841 5.84701 19.2373L9.45999 22.848C12.0913 25.4782 13.598 29.0278 13.6622 32.7478C13.7263 36.4678 12.343 40.0673 9.80396 42.7867L6.12432 46.7333C5.07724 47.8567 4.38081 49.2612 4.12048 50.7747C3.86015 52.2882 4.04723 53.8448 4.65878 55.2534C5.27032 56.6621 6.27973 57.8616 7.56315 58.7048C8.84658 59.5479 10.3482 59.9981 11.8838 60H14.5182C14.5022 59.0133 14.5022 57.728 14.5528 56.232C14.6702 52.736 15.0595 48.0347 16.1607 43.3013C17.2592 38.5947 19.1017 33.6933 22.2321 29.9333C25.0665 26.5307 28.9248 24.1093 34.0363 23.6107V9.784C34.0359 8.49927 34.2887 7.22706 34.78 6.04003C35.2714 4.85299 35.9917 3.77439 36.9 2.86583C37.8082 1.95727 38.8865 1.23654 40.0733 0.744815C41.2601 0.25309 42.5321 -4.77444e-08 43.8167 0C44.8628 0.000706932 45.8659 0.416827 46.6054 1.15689C47.3449 1.89696 47.7603 2.90041 47.7603 3.94667V6.48533H53.4984C56.4315 6.48533 59.1592 8.00533 60.7057 10.5013L62.7135 13.744C66.1532 19.296 62.2976 26.44 55.8609 26.696V57.136C55.8609 58.9551 55.1389 60.6997 53.8535 61.9868C52.5681 63.2738 50.8244 63.9979 49.0055 64H46.1418V57.136C46.1425 55.596 45.8398 54.0709 45.2511 52.6479C44.6624 51.2249 43.7992 49.9318 42.7107 48.8424C41.6222 47.7531 40.3298 46.8889 38.9073 46.2991C37.4848 45.7094 35.9601 45.4057 34.4203 45.4053H30.3673C29.8369 45.4053 29.3283 45.616 28.9532 45.9911C28.5782 46.3662 28.3675 46.8749 28.3675 47.4053C28.3675 47.9358 28.5782 48.4445 28.9532 48.8195C29.3283 49.1946 29.8369 49.4053 30.3673 49.4053H34.4203C38.6865 49.4053 42.1448 52.8667 42.1448 57.136V64H42.1422Z" fill="#4F5434"/>
</svg>
